<svg width="69" height="60" viewBox="0 0 69 60" fill="none" xmlns="http://www.w3.org/2000/svg">
<g id="Group">
<path id="Vector" d="M67.7518 32.3055C67.2441 37.794 64.9157 43.0417 61.0433 47.4253C57.1708 51.8088 51.9171 55.1439 45.9063 57.0343C39.8954 58.9247 33.3801 59.291 27.1344 58.0896C20.8887 56.8883 15.1752 54.1697 10.6725 50.257C6.1699 46.3443 3.06748 41.4019 1.73385 36.017C0.400222 30.632 0.89144 25.0309 3.14915 19.8791C5.40685 14.7272 9.33615 10.2412 14.4702 6.95401C19.6043 3.66679 25.7273 1.71654 32.1118 1.33496" stroke="white" stroke-width="2" stroke-linecap="round" stroke-linejoin="round"/>
<path id="Vector_2" d="M48.7747 34.8456C47.846 36.902 46.3361 38.7269 44.3816 40.1551C42.427 41.5834 40.0895 42.5699 37.5803 43.0256C35.0712 43.4814 32.4696 43.3918 30.0108 42.7651C27.5519 42.1384 25.3135 40.9944 23.4978 39.4364C21.6821 37.8784 20.3465 35.9556 19.6117 33.8419C18.877 31.7282 18.7662 29.4903 19.2894 27.3305C19.8127 25.1708 20.9534 23.1573 22.6086 21.4721C24.2637 19.787 26.381 18.4833 28.769 17.6791M34.4261 30.0231L47.2833 18.9621M47.2833 18.9621L57.569 21.1743L67.8547 12.3256L57.569 10.1134L54.9976 1.26465L44.7118 10.1134L47.2833 18.9621Z" stroke="white" stroke-width="2" stroke-linecap="round" stroke-linejoin="round"/>
</g>
</svg>
